<?xml version="1.0" encoding="utf-8"?>
<!-- Generator: Adobe Illustrator 19.1.0, SVG Export Plug-In . SVG Version: 6.00 Build 0)  -->
<svg version="1.1" id="Layer_1" xmlns="http://www.w3.org/2000/svg" xmlns:xlink="http://www.w3.org/1999/xlink" x="0px" y="0px"
	 viewBox="-95 19 768 645" style="enable-background:new -95 19 768 645;" xml:space="preserve">
<style type="text/css">
	.st0{fill:#20749E;}
</style>
<g id="icomoon-ignore">
</g>
<path class="st0" d="M161,19h256l64,96h96c26.5,0,49.1,9.5,67.9,28.6S673,185.5,673,212v351.5c0,26.5-9.4,49-28.1,67.6
	S603.5,659,577,659H1c-26.5,0-49.1-9.4-67.9-28.1S-95,589.5-95,563V211.5c0-26.5,9.4-49.2,28.1-68.1S-25.5,115,1,115h96L161,19z
	 M289,211c21.7,0,42.4,4.2,62.1,12.8s36.8,19.9,51,34.1c14.2,14.2,25.6,31.2,34.1,51S449,349.3,449,371s-4.2,42.4-12.8,62.1
	s-19.9,36.8-34.1,51s-31.2,25.6-51,34.1S310.7,531,289,531s-42.4-4.2-62.1-12.8s-36.8-19.9-51-34.1s-25.6-31.2-34.1-51
	S129,392.7,129,371s4.2-42.4,12.8-62.1s19.9-36.8,34.1-51c14.2-14.2,31.2-25.6,51-34.1S267.3,211,289,211z M289,275
	c-26.5,0-49.1,9.4-67.9,28.1S193,344.5,193,371s9.4,49.1,28.1,67.9S262.5,467,289,467s49.1-9.4,67.9-28.1S385,397.5,385,371
	s-9.4-49.1-28.1-67.9S315.5,275,289,275z M446.8,179L384,83H195.2l-64,96H1c-8.8,0-16.4,3.2-22.6,9.5s-9.4,14-9.4,23V563
	c0,8.8,3.1,16.4,9.4,22.6S-7.8,595,1,595h576c9,0,16.6-3,22.8-9.1s9.2-13.5,9.2-22.4V212c0-9-3.2-16.8-9.5-23.2S585.7,179,577,179
	H446.8z"/>
</svg>
