<?xml version="1.0" encoding="utf-8"?>
<!-- Generator: Adobe Illustrator 19.1.0, SVG Export Plug-In . SVG Version: 6.00 Build 0)  -->
<svg version="1.1" id="Layer_1" xmlns="http://www.w3.org/2000/svg" xmlns:xlink="http://www.w3.org/1999/xlink" x="0px" y="0px"
	 viewBox="-369 -378 1316 1316" style="enable-background:new -369 -378 1316 1316;" xml:space="preserve">
<style type="text/css">
	.st0{fill:#FFFFFF;}
</style>
<g id="icomoon-ignore">
</g>
<path class="st0" d="M577,56c9.2,0,16.8,3,22.9,9.1S609,78.8,609,88c0,9-3.1,16.6-9.2,22.8l-384,384c-6.2,6.2-13.8,9.2-22.8,9.2
	s-16.6-3.1-22.8-9.2l-192-192C-27.9,296.6-31,289-31,280c0-9.2,3-16.8,9.1-22.9S-8.2,248,1,248c9,0,16.6,3.1,22.8,9.2L193,426.8
	L554.2,65.2C560.4,59.1,568,56,577,56z"/>
</svg>
